<svg width="137" height="23" viewBox="0 0 137 23" fill="none" xmlns="http://www.w3.org/2000/svg">
<g clip-path="url(#clip0_2_12)">
<path d="M18.12 9.78C17.5748 9.99822 16.9776 10.0516 16.4023 9.93364C15.8271 9.81564 15.2991 9.53139 14.8838 9.11616C14.4686 8.70092 14.1844 8.17294 14.0664 7.59768C13.9484 7.02243 14.0018 6.42518 14.22 5.88C13.5857 5.70922 13.025 5.33496 12.6239 4.81468C12.2229 4.29441 12.0037 3.65689 12 3C10.22 3 8.47991 3.52784 6.99986 4.51677C5.51982 5.50571 4.36627 6.91131 3.68508 8.55585C3.00389 10.2004 2.82566 12.01 3.17293 13.7558C3.5202 15.5016 4.37736 17.1053 5.63604 18.364C6.89471 19.6226 8.49836 20.4798 10.2442 20.8271C11.99 21.1743 13.7996 20.9961 15.4441 20.3149C17.0887 19.6337 18.4943 18.4802 19.4832 17.0001C20.4722 15.5201 21 13.78 21 12C20.3431 11.9963 19.7056 11.7771 19.1853 11.3761C18.665 10.975 18.2908 10.4143 18.12 9.78Z" fill="#FF7000"/>
<path d="M9.05 9.5H8.95" stroke="black" stroke-width="2.5" stroke-linecap="round" stroke-linejoin="round"/>
<path d="M9.55 15H9.45" stroke="black" stroke-width="2.5" stroke-linecap="round" stroke-linejoin="round"/>
<path d="M14.55 14H14.45" stroke="black" stroke-width="2.5" stroke-linecap="round" stroke-linejoin="round"/>
<path d="M18.12 9.78C17.5748 9.99822 16.9776 10.0516 16.4023 9.93364C15.8271 9.81564 15.2991 9.53139 14.8838 9.11616C14.4686 8.70092 14.1844 8.17294 14.0664 7.59768C13.9484 7.02243 14.0018 6.42518 14.22 5.88C13.5857 5.70922 13.025 5.33496 12.6239 4.81468C12.2229 4.29441 12.0037 3.65689 12 3C10.22 3 8.47991 3.52784 6.99986 4.51677C5.51982 5.50571 4.36627 6.91131 3.68508 8.55585C3.00389 10.2004 2.82566 12.01 3.17293 13.7558C3.5202 15.5016 4.37736 17.1053 5.63604 18.364C6.89471 19.6226 8.49836 20.4798 10.2442 20.8271C11.99 21.1743 13.7996 20.9961 15.4441 20.3149C17.0887 19.6337 18.4943 18.4802 19.4832 17.0001C20.4722 15.5201 21 13.78 21 12C20.3431 11.9963 19.7056 11.7771 19.1853 11.3761C18.665 10.975 18.2908 10.4143 18.12 9.78Z" stroke="black" stroke-width="2" stroke-linecap="round" stroke-linejoin="round"/>
<path d="M59.2551 18.2836C57.6494 18.2836 56.3721 17.8456 55.4233 16.9698C54.4745 16.0818 54 14.8167 54 13.1745V10.109C54 8.46686 54.4745 7.20784 55.4233 6.332C56.3721 5.444 57.6494 5 59.2551 5C60.8608 5 62.1381 5.444 63.0869 6.332C64.0357 7.20784 64.5101 8.46686 64.5101 10.109V13.1745C64.5101 14.8167 64.0357 16.0818 63.0869 16.9698C62.1381 17.8456 60.8608 18.2836 59.2551 18.2836ZM59.2551 16.1304C60.1553 16.1304 60.8547 15.8689 61.3535 15.3458C61.8522 14.8228 62.1016 14.1233 62.1016 13.2475V10.0361C62.1016 9.16024 61.8522 8.46078 61.3535 7.93771C60.8547 7.41464 60.1553 7.1531 59.2551 7.1531C58.3671 7.1531 57.6676 7.41464 57.1567 7.93771C56.658 8.46078 56.4086 9.16024 56.4086 10.0361V13.2475C56.4086 14.1233 56.658 14.8228 57.1567 15.3458C57.6676 15.8689 58.3671 16.1304 59.2551 16.1304ZM68.5934 18.0281L65.7104 8.97777H68.1555L70.2538 16.3494H70.5823L72.6806 8.97777H75.1257L72.2427 18.0281H68.5934ZM80.5487 18.2836C79.6485 18.2836 78.8517 18.095 78.1583 17.7179C77.4771 17.3286 76.9419 16.7873 76.5526 16.094C76.1755 15.3884 75.987 14.5612 75.987 13.6124V13.3934C75.987 12.4446 76.1755 11.6235 76.5526 10.9301C76.9297 10.2246 77.4589 9.68331 78.1401 9.30621C78.8213 8.91695 79.612 8.72232 80.5122 8.72232C81.4002 8.72232 82.1726 8.92303 82.8295 9.32446C83.4864 9.71372 83.9973 10.2611 84.3622 10.9666C84.7272 11.66 84.9096 12.4689 84.9096 13.3934V14.1781H78.3226C78.3469 14.7984 78.578 15.3033 79.0159 15.6925C79.4539 16.0818 79.9891 16.2764 80.6216 16.2764C81.2664 16.2764 81.7408 16.1365 82.0449 15.8567C82.349 15.577 82.5801 15.2668 82.7383 14.9262L84.6177 15.9115C84.4474 16.2278 84.198 16.5744 83.8696 16.9515C83.5533 17.3165 83.1275 17.6328 82.5923 17.9004C82.0571 18.1558 81.3758 18.2836 80.5487 18.2836ZM78.3408 12.4629H82.574C82.5254 11.9398 82.3125 11.5201 81.9354 11.2038C81.5705 10.8876 81.09 10.7294 80.4939 10.7294C79.8735 10.7294 79.3809 10.8876 79.0159 11.2038C78.651 11.5201 78.426 11.9398 78.3408 12.4629ZM86.956 18.0281V8.97777H89.2185V9.99958H89.547C89.6808 9.63465 89.8997 9.36703 90.2039 9.19673C90.5201 9.02643 90.8851 8.94128 91.2987 8.94128H92.3935V10.9849H91.2622C90.6783 10.9849 90.1978 11.143 89.8207 11.4593C89.4436 11.7634 89.255 12.2378 89.255 12.8825V18.0281H86.956ZM95.6866 18.0281V10.8754H93.3876V8.97777H95.6866V7.29908C95.6866 6.67869 95.8696 6.18603 96.2336 5.8211C96.6116 5.444 97.0976 5.25545 97.6936 5.25545H100.066V7.1531H98.4966C98.1556 7.1531 97.9856 7.33557 97.9856 7.7005V8.97777H100.358V10.8754H97.9856V18.0281H95.6866ZM101.636 18.0281V5.25545H103.935V18.0281H101.636ZM110.792 18.2836C109.892 18.2836 109.083 18.1011 108.365 17.7362C107.648 17.3712 107.082 16.8421 106.668 16.1487C106.255 15.4553 106.048 14.6221 106.048 13.6489V13.357C106.048 12.3838 106.255 11.5505 106.668 10.8572C107.082 10.1638 107.648 9.63465 108.365 9.26972C109.083 8.90478 109.892 8.72232 110.792 8.72232C111.692 8.72232 112.501 8.90478 113.219 9.26972C113.937 9.63465 114.502 10.1638 114.916 10.8572C115.33 11.5505 115.536 12.3838 115.536 13.357V13.6489C115.536 14.6221 115.33 15.4553 114.916 16.1487C114.502 16.8421 113.937 17.3712 113.219 17.7362C112.501 18.1011 111.692 18.2836 110.792 18.2836ZM110.792 16.2399C111.498 16.2399 112.082 16.0149 112.544 15.5648C113.006 15.1026 113.237 14.4457 113.237 13.5942V13.4117C113.237 12.5602 113.006 11.9094 112.544 11.4593C112.094 10.997 111.51 10.7659 110.792 10.7659C110.087 10.7659 109.503 10.997 109.041 11.4593C108.578 11.9094 108.347 12.5602 108.347 13.4117V13.5942C108.347 14.4457 108.578 15.1026 109.041 15.5648C109.503 16.0149 110.087 16.2399 110.792 16.2399ZM118.353 18.0281L117.075 8.97777H119.356L120.159 16.4771H120.488L121.655 8.97777H125.341L126.509 16.4771H126.837L127.64 8.97777H129.921L128.644 18.0281H124.83L123.663 10.5287H123.334L122.166 18.0281H118.353Z" fill="#FF7000"/>
<path d="M27.2012 18V5.26H31.6602L33.8624 16.362H34.19L36.3922 5.26H40.8512V18H38.5216V7.0254H38.194L36.01 18H32.0424L29.8584 7.0254H29.5308V18H27.2012ZM44.3062 21.64V19.638H49.2202C49.5599 19.638 49.7298 19.456 49.7298 19.092V16.817H49.4022C49.3051 17.0233 49.1535 17.2295 48.9472 17.4358C48.7409 17.6421 48.4619 17.8119 48.11 17.9454C47.7581 18.0789 47.3092 18.1456 46.7632 18.1456C46.0595 18.1456 45.4407 17.9879 44.9068 17.6724C44.3851 17.3448 43.9786 16.8959 43.6874 16.3256C43.3962 15.7553 43.2506 15.1001 43.2506 14.36V8.9728H45.5438V14.178C45.5438 14.8575 45.7076 15.3671 46.0352 15.7068C46.3749 16.0465 46.8542 16.2164 47.473 16.2164C48.1767 16.2164 48.7227 15.9859 49.111 15.5248C49.4993 15.0516 49.6934 14.3964 49.6934 13.5592V8.9728H51.9866V19.6016C51.9866 20.2204 51.8046 20.7118 51.4406 21.0758C51.0766 21.4519 50.5913 21.64 49.9846 21.64H44.3062Z" fill="white"/>
</g>
<defs>
<clipPath id="clip0_2_12">
<rect width="137" height="23" fill="white"/>
</clipPath>
</defs>
</svg>
