<svg width="128" height="21" viewBox="0 0 128 21" fill="none" xmlns="http://www.w3.org/2000/svg">
<path d="M16.12 7.78C15.5748 7.99822 14.9776 8.05165 14.4023 7.93364C13.8271 7.81564 13.2991 7.53139 12.8838 7.11616C12.4686 6.70092 12.1844 6.17294 12.0664 5.59768C11.9484 5.02243 12.0018 4.42518 12.22 3.88C11.5857 3.70922 11.025 3.33496 10.6239 2.81468C10.2229 2.29441 10.0037 1.65689 10 1C8.21997 1 6.47991 1.52784 4.99987 2.51677C3.51983 3.50571 2.36628 4.91131 1.68509 6.55585C1.0039 8.20038 0.82567 10.01 1.17294 11.7558C1.5202 13.5016 2.37737 15.1053 3.63604 16.364C4.89472 17.6226 6.49836 18.4798 8.24419 18.8271C9.99002 19.1743 11.7996 18.9961 13.4442 18.3149C15.0887 17.6337 16.4943 16.4802 17.4832 15.0001C18.4722 13.5201 19 11.78 19 10C18.3431 9.99631 17.7056 9.77712 17.1853 9.37608C16.665 8.97503 16.2908 8.41431 16.12 7.78Z" fill="#FF7000"/>
<path d="M7.05 7.5H6.95" stroke="black" stroke-width="2.5" stroke-linecap="round" stroke-linejoin="round"/>
<path d="M7.55 13H7.45" stroke="black" stroke-width="2.5" stroke-linecap="round" stroke-linejoin="round"/>
<path d="M12.55 12H12.45" stroke="black" stroke-width="2.5" stroke-linecap="round" stroke-linejoin="round"/>
<path d="M16.12 7.78C15.5748 7.99822 14.9776 8.05165 14.4023 7.93364C13.8271 7.81564 13.2991 7.53139 12.8838 7.11616C12.4686 6.70092 12.1844 6.17294 12.0664 5.59768C11.9484 5.02243 12.0018 4.42518 12.22 3.88C11.5857 3.70922 11.025 3.33496 10.6239 2.81468C10.2229 2.29441 10.0037 1.65689 10 1C8.21997 1 6.47991 1.52784 4.99987 2.51677C3.51983 3.50571 2.36628 4.91131 1.68509 6.55585C1.0039 8.20038 0.82567 10.01 1.17294 11.7558C1.5202 13.5016 2.37737 15.1053 3.63604 16.364C4.89472 17.6226 6.49836 18.4798 8.24419 18.8271C9.99002 19.1743 11.7996 18.9961 13.4442 18.3149C15.0887 17.6337 16.4943 16.4802 17.4832 15.0001C18.4722 13.5201 19 11.78 19 10C18.3431 9.99631 17.7056 9.77712 17.1853 9.37608C16.665 8.97503 16.2908 8.41431 16.12 7.78Z" stroke="black" stroke-width="2" stroke-linecap="round" stroke-linejoin="round"/>
<path d="M57.2551 16.2836C55.6494 16.2836 54.3721 15.8456 53.4233 14.9698C52.4745 14.0818 52 12.8167 52 11.1745V8.10902C52 6.46686 52.4745 5.20784 53.4233 4.332C54.3721 3.444 55.6494 3 57.2551 3C58.8608 3 60.1381 3.444 61.0869 4.332C62.0357 5.20784 62.5101 6.46686 62.5101 8.10902V11.1745C62.5101 12.8167 62.0357 14.0818 61.0869 14.9698C60.1381 15.8456 58.8608 16.2836 57.2551 16.2836ZM57.2551 14.1304C58.1553 14.1304 58.8547 13.8689 59.3535 13.3458C59.8522 12.8228 60.1016 12.1233 60.1016 11.2475V8.03612C60.1016 7.16024 59.8522 6.46078 59.3535 5.93771C58.8547 5.41464 58.1553 5.1531 57.2551 5.1531C56.3671 5.1531 55.6676 5.41464 55.1567 5.93771C54.658 6.46078 54.4086 7.16024 54.4086 8.03612V11.2475C54.4086 12.1233 54.658 12.8228 55.1567 13.3458C55.6676 13.8689 56.3671 14.1304 57.2551 14.1304ZM66.5934 16.0281L63.7104 6.97777H66.1555L68.2538 14.3494H68.5823L70.6806 6.97777H73.1257L70.2427 16.0281H66.5934ZM78.5487 16.2836C77.6485 16.2836 76.8517 16.095 76.1583 15.7179C75.4771 15.3286 74.9419 14.7873 74.5526 14.094C74.1755 13.3884 73.987 12.5612 73.987 11.6124V11.3934C73.987 10.4446 74.1755 9.62352 74.5526 8.93012C74.9297 8.22462 75.4589 7.68331 76.1401 7.30621C76.8213 6.91695 77.612 6.72232 78.5122 6.72232C79.4002 6.72232 80.1726 6.92303 80.8295 7.32446C81.4864 7.71372 81.9973 8.26112 82.3622 8.96662C82.7272 9.66002 82.9096 10.4689 82.9096 11.3934V12.1781H76.3226C76.3469 12.7984 76.578 13.3033 77.0159 13.6925C77.4539 14.0818 77.9891 14.2764 78.6216 14.2764C79.2664 14.2764 79.7408 14.1365 80.0449 13.8567C80.349 13.577 80.5801 13.2668 80.7383 12.9262L82.6177 13.9115C82.4474 14.2278 82.198 14.5744 81.8696 14.9515C81.5533 15.3165 81.1275 15.6328 80.5923 15.9004C80.0571 16.1558 79.3758 16.2836 78.5487 16.2836ZM76.3408 10.4629H80.574C80.5254 9.93982 80.3125 9.52012 79.9354 9.20382C79.5705 8.88762 79.09 8.72942 78.4939 8.72942C77.8735 8.72942 77.3809 8.88762 77.0159 9.20382C76.651 9.52012 76.426 9.93982 76.3408 10.4629ZM84.956 16.0281V6.97777H87.2185V7.99958H87.547C87.6808 7.63465 87.8997 7.36703 88.2039 7.19673C88.5201 7.02643 88.8851 6.94128 89.2987 6.94128H90.3935V8.98492H89.2622C88.6783 8.98492 88.1978 9.14302 87.8207 9.45932C87.4436 9.76342 87.255 10.2378 87.255 10.8825V16.0281H84.956ZM93.6866 16.0281V8.87542H91.3876V6.97777H93.6866V5.29908C93.6866 4.67869 93.8696 4.18603 94.2336 3.8211C94.6116 3.444 95.0976 3.25545 95.6936 3.25545H98.0656V5.1531H96.4966C96.1556 5.1531 95.9856 5.33557 95.9856 5.7005V6.97777H98.3576V8.87542H95.9856V16.0281H93.6866ZM99.6356 16.0281V3.25545H101.935V16.0281H99.6356ZM108.792 16.2836C107.892 16.2836 107.083 16.1011 106.365 15.7362C105.648 15.3712 105.082 14.8421 104.668 14.1487C104.255 13.4553 104.048 12.6221 104.048 11.6489V11.357C104.048 10.3838 104.255 9.55052 104.668 8.85722C105.082 8.16382 105.648 7.63465 106.365 7.26972C107.083 6.90478 107.892 6.72232 108.792 6.72232C109.692 6.72232 110.501 6.90478 111.219 7.26972C111.937 7.63465 112.502 8.16382 112.916 8.85722C113.33 9.55052 113.536 10.3838 113.536 11.357V11.6489C113.536 12.6221 113.33 13.4553 112.916 14.1487C112.502 14.8421 111.937 15.3712 111.219 15.7362C110.501 16.1011 109.692 16.2836 108.792 16.2836ZM108.792 14.2399C109.498 14.2399 110.082 14.0149 110.544 13.5648C111.006 13.1026 111.237 12.4457 111.237 11.5942V11.4117C111.237 10.5602 111.006 9.90942 110.544 9.45932C110.094 8.99702 109.51 8.76592 108.792 8.76592C108.087 8.76592 107.503 8.99702 107.041 9.45932C106.578 9.90942 106.347 10.5602 106.347 11.4117V11.5942C106.347 12.4457 106.578 13.1026 107.041 13.5648C107.503 14.0149 108.087 14.2399 108.792 14.2399ZM116.353 16.0281L115.075 6.97777H117.356L118.159 14.4771H118.488L119.655 6.97777H123.341L124.509 14.4771H124.837L125.64 6.97777H127.921L126.644 16.0281H122.83L121.663 8.52872H121.334L120.166 16.0281H116.353Z" fill="#FF7000"/>
<path d="M25.2012 16V3.26H29.6602L31.8624 14.362H32.19L34.3922 3.26H38.8512V16H36.5216V5.0254H36.194L34.01 16H30.0424L27.8584 5.0254H27.5308V16H25.2012ZM42.3062 19.64V17.638H47.2202C47.56 17.638 47.7298 17.456 47.7298 17.092V14.817H47.4022C47.3052 15.0233 47.1535 15.2295 46.9472 15.4358C46.741 15.6421 46.4619 15.8119 46.11 15.9454C45.7582 16.0789 45.3092 16.1456 44.7632 16.1456C44.0595 16.1456 43.4407 15.9879 42.9068 15.6724C42.3851 15.3448 41.9786 14.8959 41.6874 14.3256C41.3962 13.7553 41.2506 13.1001 41.2506 12.36V6.9728H43.5438V12.178C43.5438 12.8575 43.7076 13.3671 44.0352 13.7068C44.375 14.0465 44.8542 14.2164 45.473 14.2164C46.1768 14.2164 46.7228 13.9859 47.111 13.5248C47.4993 13.0516 47.6934 12.3964 47.6934 11.5592V6.9728H49.9866V17.6016C49.9866 18.2204 49.8046 18.7118 49.4406 19.0758C49.0766 19.4519 48.5913 19.64 47.9846 19.64H42.3062Z" fill="#191F23"/>
</svg>
